# xmcd
#
# Track frame offsets: 
#        150
#        13027
#        24927
#        45552
#        65802
#        81176
#        100489
#        117352
#        132237
#        144015
#        158885
#        179502
#        193032
#        204867
#        217365
#        229954
#        242788
#        259825
#        271317
#        281452
#        292365
#        302453
#        313947
#        328037
#        341085
#
# Disc length: 4732 seconds
#
# Revision: 0
# Processed by: cddbd v1.5.2PL0 Copyright (c) Steve Scherf et al.
# Submitted via: ExactAudioCopy v0.95b4
#
DISCID=84127a19
DTITLE=Johnny Cash - Essential Johnny Cash, The
DYEAR=2006
DGENRE=Country
TTITLE0=Help Me
TTITLE1=God's Gonna Cut You Down
TTITLE2=Like The 309
TTITLE3=If You Could Read My Mind
TTITLE4=Further On Up The Road
TTITLE5=The Evening Train
TTITLE6=I Came To Believe
TTITLE7=Love's Been Good To Me
TTITLE8=A Legend In My Time
TTITLE9=Rose Of My Heart
TTITLE10=Four Strong Winds
TTITLE11=I'm Free From The Chain Gang Now
TTITLE12=Ring Of Fire
TTITLE13=I Walk The Line
TTITLE14=Jackson (w/ June Carter Cash)
TTITLE15=Folsom Prison Blues
TTITLE16=A Boy Named Sue
TTITLE17=Big River
TTITLE18=Get Rhythm
TTITLE19=Cry, Cry, Cry
TTITLE20=Hey Porter
TTITLE21=Thing Called Love
TTITLE22=San Quentin
TTITLE23=Man in Black
TTITLE24=Highwayman
EXTD=
EXTT0=
EXTT1=
EXTT2=
EXTT3=
EXTT4=
EXTT5=
EXTT6=
EXTT7=
EXTT8=
EXTT9=
EXTT10=
EXTT11=
EXTT12=
EXTT13=
EXTT14=
EXTT15=
EXTT16=
EXTT17=
EXTT18=
EXTT19=
EXTT20=
EXTT21=
EXTT22=
EXTT23=
EXTT24=
PLAYORDER=
